HIERARCHY
ROOT pelvis
{
	OFFSET 0.000000 0.000000 0.000000
	CHANNELS 6 Xposition Yposition Zposition Zrotation Xrotation Yrotation
	JOINT lfemur
	{
		OFFSET 11.446000 0.000000 0.000000
		CHANNELS 3 Zrotation Xrotation Yrotation
		JOINT ltibia
		{
			OFFSET 0.000000 -42.030400 0.000000
			CHANNELS 3 Zrotation Xrotation Yrotation
			JOINT lfoot
			{
				OFFSET 0.000000 -39.930200 0.000000
				CHANNELS 3 Zrotation Xrotation Yrotation
				JOINT ltoes
				{
					OFFSET 0.000000 0.000000 11.775800
					CHANNELS 3 Zrotation Xrotation Yrotation
					End Site
					{
					    OFFSET 0.000000 0.000000 5.000000
					}
				}
			}
		}
	}
	JOINT rfemur
	{
		OFFSET -11.446000 0.000000 0.000000
		CHANNELS 3 Zrotation Xrotation Yrotation
		JOINT rtibia
		{
			OFFSET 0.000000 -42.030400 0.000000
			CHANNELS 3 Zrotation Xrotation Yrotation
			JOINT rfoot
			{
				OFFSET 0.000000 -39.930200 0.000000
				CHANNELS 3 Zrotation Xrotation Yrotation
				JOINT rtoes
				{
					OFFSET 0.000000 0.000000 11.775800
					CHANNELS 3 Zrotation Xrotation Yrotation
					End Site
					{
					    OFFSET 0.000000 0.000000 5.000000
					}
				}
			}
		}
	}
	JOINT thorax
	{
		OFFSET 0.000000 11.255600 -5.000000
		CHANNELS 3 Zrotation Xrotation Yrotation
		JOINT head
		{
			OFFSET 0.000000 43.799300 0.000000
			CHANNELS 3 Zrotation Xrotation Yrotation
			End Site
			{
			    OFFSET 0.000000 5.000000 0.000000
			}
		}
		JOINT lclavicle
		{
			OFFSET 0.000000 39.863000 0.000000
			CHANNELS 3 Zrotation Xrotation Yrotation
			JOINT lhumerus
			{
				OFFSET 17.380600 4.958300 0.000000
				CHANNELS 3 Zrotation Xrotation Yrotation
				JOINT lradius
				{
					OFFSET 0.000000 -27.561300 0.000000
					CHANNELS 3 Zrotation Xrotation Yrotation
					JOINT lhand
					{
						OFFSET 0.000000 -26.933000 0.000000
						CHANNELS 3 Zrotation Xrotation Yrotation
						End Site
						{
						    OFFSET 0.000000 -5.000000 0.000000
						}
					}
				}
			}
		}
		JOINT rclavicle
		{
			OFFSET 0.000000 39.863000 0.000000
			CHANNELS 3 Zrotation Xrotation Yrotation
			JOINT rhumerus
			{
				OFFSET -17.380600 4.958300 0.000000
				CHANNELS 3 Zrotation Xrotation Yrotation
				JOINT rradius
				{
					OFFSET 0.000000 -27.561300 0.000000
					CHANNELS 3 Zrotation Xrotation Yrotation
					JOINT rhand
					{
						OFFSET 0.000000 -26.933000 0.000000
						CHANNELS 3 Zrotation Xrotation Yrotation
						End Site
						{
						    OFFSET 0.000000 -5.000000 0.000000
						}
					}
				}
			}
		}
	}
}
MOTION
Frames:	7
Frame Time:	0.0333333
-205.253 85.0127 39.0593 -1.41434 3.67863 -164.589 1.3364 -23.5827 -1.73644 2.83208 6.11454 -5.40493 -2.82122 12.2947 0.22545 -1.70958e-015 -5 3.1927e-015 5.6326 8.4148 -0.540144 -2.8208 23.6565 0.339698 -6.92105 -12.6138 -1.14609 -7.95139e-016 -5 -0 -3.19973 11.5778 -0.633713 10.7799 17.5469 -28.1113 -1.39149e-015 -1.59028e-015 -3.18055e-015 18.6052 -9.93154 63.5297 1.0164 -0.00361625 -109.789 7.25357 -8.72295 -9.04438 -1.39149e-015 -1.59028e-015 -3.18055e-015 -16.3337 -13.4572 -26.4141 14.5064 -4.26957 57.1723 -2.64391 -1.67414 9.77194 
-206.859 84.5162 35.8838 -1.79533 4.06968 -166.632 0.79595 -23.1228 -2.19008 2.64763 4.55438 -7.39041 -4.67908 11.8569 0.371552 -1.16288e-015 -5 -7.98176e-016 4.76314 10.4186 1.24695 -3.41138 25.4438 0.818569 -5.47834 -13.886 -1.02637 -0 -5 -0 -3.60985 11.5021 -0.605805 10.3707 18.3918 -27.6512 1.39149e-015 7.95139e-016 3.18055e-015 18.9331 -9.45414 64.8464 1.93151 -0.00368282 -112.755 7.26024 -8.65844 -9.04816 1.39149e-015 7.95139e-016 3.18055e-015 -16.5392 -12.2966 -26.375 14.5328 -4.07435 57.5782 -2.27349 -1.65158 9.79479 
-208.468 84.2553 32.7282 -2.00313 4.16262 -168.732 -0.167296 -23.0238 -3.49575 3.20424 6.96708 -5.83251 -5.04148 13.6023 0.445878 -4.27396e-016 -5 7.98176e-016 4.44914 11.6429 7.43412 -3.02626 28.1881 -3.32877 -2.7938 -14.1526 -0.65642 2.78262e-016 -5 3.1927e-015 -3.65591 11.0875 -0.58179 9.47546 19.4638 -27.1196 1.19271e-015 1.59028e-015 1.59028e-015 18.4929 -8.65458 66.5321 2.83303 -0.104638 -114.146 7.34981 -8.2456 -9.06001 1.19271e-015 1.59028e-015 1.59028e-015 -16.86 -10.4548 -27.4266 14.2565 -3.91533 59.028 -2.18913 -1.76782 9.7983 
-210.051 84.0995 29.3679 -1.95528 4.54887 -170.466 -1.13764 -23.9406 -7.14043 3.23549 14.0297 -2.77182 -2.10363 16.9759 0.21801 1.36663e-015 -5 9.9772e-016 3.60788 12.319 11.6958 -0.945881 32.3885 -6.14773 -0.786026 -13.5242 -0.363304 5.16876e-016 -5 -3.1927e-015 -3.85443 10.6163 -0.615825 9.00441 20.3435 -26.6605 9.93923e-017 1.59028e-015 3.18055e-015 18.6297 -7.76069 68.0867 3.68772 0.030505 -114.723 7.40409 -8.05934 -9.06975 9.93923e-017 1.59028e-015 3.18055e-015 -16.3956 -7.98391 -30.5016 13.47 -4.01209 61.9761 -1.67945 -2.21336 9.82372 
-211.621 83.9927 25.9777 -2.04381 4.98291 -172.111 -1.88325 -24.3244 -11.7473 1.65331 20.4898 2.10941 -1.11981 17.6485 0.0881768 1.15544e-015 -5 -4.9886e-016 2.74066 11.0889 11.3005 -0.57364 40.1456 -4.58841 1.93134 -11.4651 -0.0193737 2.78262e-016 -5 3.1927e-015 -4.40516 10.621 -0.561173 9.80007 20.0438 -26.6514 5.96354e-016 0 -0 18.9792 -7.49561 68.9491 4.23241 -0.0771241 -114.138 7.40333 -7.71206 -9.09031 5.96354e-016 0 -0 -15.7311 -5.9248 -31.8022 13.1371 -4.18583 62.0712 -1.32996 -2.14508 9.84772 
-213.156 84.0974 22.6055 -2.14557 5.57888 -174.004 -1.96139 -23.9228 -10.8634 0.420416 25.9355 3.97946 -0.168441 14.3934 -0.0296957 -1.77687e-016 -5 2.09521e-015 1.36365 7.61887 8.9034 -0.652239 50.9503 -1.55709 4.53878 -5.82535 0.091249 -1.52071e-015 -5 7.98176e-016 -4.73767 10.6251 -0.541523 10.2224 20.0978 -26.5195 4.96962e-017 7.95139e-016 -7.95139e-016 18.9155 -7.44113 70.029 5.31519 -0.00356047 -115.006 6.90676 -7.74618 -9.14533 4.96962e-017 7.95139e-016 -7.95139e-016 -15.0689 -3.72997 -32.4387 12.7168 -4.19883 61.6451 -1.77754 -1.85844 9.82146 
-214.676 84.3075 19.4125 -2.71187 5.96953 -176.68 -2.09578 -22.6329 -6.12932 0.501371 29.3588 2.70115 1.08956 10.7363 -0.109855 2.08476e-015 -5 -5.98632e-016 -0.398156 1.78785 7.93066 -0.865094 63.28 -0.388166 6.05296 3.23399 -0.164994 3.47828e-017 -5 3.99088e-016 -5.30011 10.7869 -0.562163 9.15675 20.1059 -25.1235 6.4605e-016 -1.59028e-015 3.97569e-016 18.2092 -7.344 69.7394 5.25115 -0.00362233 -115.082 7.40504 -7.13115 -9.12903 6.4605e-016 -1.59028e-015 3.97569e-016 -15.2978 -2.66612 -33.3847 12.32 -2.96743 62.6742 -2.41186 -2.75853 9.76543 
